#!OML:ASF F:\VICON\USERDATA\INSTALL\rory3\rory3.ASF
:FULLY-SPECIFIED
:DEGREES
73
root -0.23110706622564214 17.456287592397608 47.32643552831191 3.550547923463172 1.9040596807576398 -0.35186521258742287
lfemur 9.223608248798547 -2.2322212412935647 -26.310532679910953
ltibia 37.2621418094693
lfoot -7.5587757147449075 -2.4097438384596384
ltoes -25.05866089619348
rfemur -49.4225072353426 -5.0178497994621765 23.01776663976178
rtibia 95.73558155447549
rfoot 2.123456856051385 -4.3045367370749075
rtoes 3.7807095240624635
lowerback 15.275674075382012 -0.6822421585733103 -2.420093662907828
upperback -1.1468597061702144 -1.2680595798834107 1.2778147926755807
thorax -9.778354676917257 -0.409395088931369 3.8379789880373565
lowerneck -21.460541099982525 -2.282333039276728 -2.2321727831501397
upperneck 15.02927207954578 -3.0638449748328336 3.204663978136612
head 8.097239070071476 -1.2072564482222141 1.0418202137797627
lclavicle -5.745617710521137e-16 2.6210955049956577e-15
lhumerus -30.166332711316596 -16.928487635133468 96.79623093206095
lradius 116.96160834315594
lwrist 37.2137544518859
lhand -25.443191564936605 0.4547131771588073
lfingers 7.12502
lthumb 1.0834735712444983 30.455294602319913
rclavicle -5.745617710521137e-16 2.6210955049956577e-15
rhumerus -60.34377623963945 6.219635765371592 -100.19891252198178
rradius 106.03209710558143
rwrist -13.671453271161385
rhand -14.101756799916359 38.68598481650807
rfingers 7.12502
rthumb 12.032475402746483 9.436159610080319
74
root -0.188321174761929 17.712173302756767 48.364058424402735 3.87601760450581 0.9104319353299979 -0.7477535326600928
lfemur 13.55802405172488 -2.021128483932284 -25.817880317280803
ltibia 33.619842144334015
lfoot 0.5965352758543676 -5.5053391097660755
ltoes -26.909562759620385
rfemur -49.80014959662515 -3.1751342346483864 24.05164302450713
rtibia 85.95200770243221
rfoot 1.8980543270080203 -3.5021028852899314
rtoes 0.8951760031810703
lowerback 14.677288804747059 -0.9960187790841444 -2.1312966000822646
upperback -1.4841128363377787 -1.5924716855320789 1.78604133230821
thorax -9.668581115947925 -0.5610612263822928 4.289526872642908
lowerneck -21.1998388643963 -1.8895203784864478 -2.399133504073011
upperneck 15.50460800034953 -2.4411188290774137 2.943178426623787
head 8.17831981795769 -0.9525590489672144 1.0371303462522468
lclavicle -3.936111272526419e-16 2.7523597365182102e-15
lhumerus -29.91354443725674 -16.573269008317187 95.99378299616028
lradius 119.04291433592999
lwrist 37.859476422201446
lhand -25.224357294304454 0.3590543232752774
lfingers 7.12502
lthumb 1.2948085912932388 30.350784156775667
rclavicle -3.936111272526419e-16 2.7523597365182102e-15
rhumerus -62.468249295064126 6.034136347397213 -99.21620861046435
rradius 107.04480729529688
rwrist -13.86046754705555
rhand -13.930267943357137 38.76125705232237
rfingers 7.12502
rthumb 12.198016057031808 9.499844376478498
75
root -0.14375183153015905 17.939415670607477 48.958970312696906 4.152789150879157 -0.1692240291084962 -1.0930683732816948
lfemur 16.820338243086816 -2.202493396037627 -25.633249921007366
ltibia 30.042982147106937
lfoot 8.579886703481122 -8.351149537419795
ltoes -26.289104101528125
rfemur -49.630570800004435 -1.4178061217131805 24.776410767885682
rtibia 74.96290356243739
rfoot 1.9283026709908797 -2.670684080287643
rtoes -2.4769204182539357
lowerback 14.073248077781251 -1.2433641697783342 -1.8964045786931616
upperback -1.8335739464974825 -1.8417814665407275 2.182804761033638
thorax -9.585270142062761 -0.6783632176971727 4.544008683971172
lowerneck -20.879668441075705 -1.6139675861242098 -2.6069178345636117
upperneck 15.896497004448383 -1.9835274713524798 2.7344877423582394
head 8.240471439718958 -0.7717646779053642 1.0449040747229614
lclavicle -6.969188960724571e-16 2.5322703961478123e-15
lhumerus -30.280653331572427 -16.701133659401663 95.1802198903443
lradius 120.2550251885124
lwrist 37.61881708456879
lhand -24.894117414674543 0.22462512819007863
lfingers 7.12502
lthumb 1.6137506867626756 30.208118478725204
rclavicle -6.969188960724571e-16 2.5322703961478123e-15
rhumerus -64.60022186765818 5.297622734621692 -98.07548382969757
rradius 107.8334907136235
rwrist -13.817917332429671
rhand -13.950544430054235 38.810279400111014
rfingers 7.12502
rthumb 12.178531487009794 9.521173207087578
76
root -0.09493753915861261 18.131394300723496 49.95221439493507 4.430563645071502 -1.0110380481924013 -1.2074378439765419
lfemur 19.570416484551473 -2.7449247877337015 -25.632617141388607
ltibia 27.97543998372921
lfoot 15.620678123588082 -10.400569874234082
ltoes -23.24196444023285
rfemur -48.36333505344836 0.06252967398435971 25.309074846707205
rtibia 64.16244061131407
rfoot 2.5753123841408967 -1.8422460268350402
rtoes -5.613121049306432
lowerback 13.579508065794975 -1.416138864440077 -1.65767148973288
upperback -2.1344320907629557 -2.004682446209378 2.460616378923241
thorax -9.507617881580991 -0.7583373503806118 4.731916840739775
lowerneck -20.51670262639933 -1.4229014359297079 -2.797370355120494
upperneck 16.18217000945743 -1.6532668721917783 2.608612191529322
head 8.28148394840203 -0.6438245939208445 1.0687465329778914
lclavicle -5.495792792946918e-16 2.639004396422218e-15
lhumerus -30.54278860762182 -17.084529443576727 94.45125416398122
lradius 120.78328615849176
lwrist 36.812407477328435
lhand -24.50819092379965 0.12220076870618923
lfingers 7.12502
lthumb 1.9864939760257148 30.10163787804834
rclavicle -5.495792792946918e-16 2.639004396422218e-15
rhumerus -66.28334064980835 4.231331633668911 -96.73909607746216
rradius 108.65937099259095
rwrist -13.546092863488127
rhand -14.026274358868687 38.894057191666874
rfingers 7.12502
rthumb 12.10555564132899 9.574290019230462
77
root -0.05891225375957915 18.257837910058036 50.40847141035006 4.580007100812434 -1.6448320213968528 -1.1750952647209811
lfemur 20.91780597498601 -3.7553811448394536 -26.114758686282837
ltibia 27.019040633762007
lfoot 20.40048258872901 -11.915617994270818
ltoes -19.314717848015807
rfemur -47.43182107167594 0.8862887501066987 25.411815391112498
rtibia 53.108940233857595
rfoot 3.124776962846604 -1.4587284691541518
rtoes -8.595728053838815
lowerback 13.163544014310014 -1.6280574660992113 -1.6482809095136222
upperback -2.384317966552051 -2.267236974397385 2.5590136757627207
thorax -9.456411017245681 -0.878021579852608 4.78153355153997
lowerneck -20.262939169569112 -1.351960004832498 -2.971804280957051
upperneck 16.273450123435513 -1.508155313828818 2.503288849514452
head 8.280585599626672 -0.5935179047104813 1.0815523047433602
lclavicle -1.1377534569485886e-15 2.2122966820642714e-15
lhumerus -31.108251639758173 -17.93500893985846 93.77166208323284
lradius 120.42626214847591
lwrist 35.72614181354091
lhand -24.251420707642236 -0.10505722179907484
lfingers 7.12502
lthumb 2.2345237696498685 29.876256545119656
rclavicle -1.1377534569485886e-15 2.2122966820642714e-15
rhumerus -67.96983810003461 2.669987828001455 -95.47377927043543
rradius 109.28801244719892
rwrist -13.223384039415418
rhand -14.169612189417379 38.934458175265775
rfingers 7.12502
rthumb 11.967328603272852 9.589198750111201
78
root -0.032299188341770174 18.339142035233518 50.998707874135654 4.640350027311737 -1.887886711342159 -0.9065356293787563
lfemur 21.777096688999094 -4.8731455214785795 -26.687429395284752
ltibia 28.396223791895366
lfoot 23.191651228545478 -12.799802772744997
ltoes -15.134413907273974
rfemur -45.932041375225296 1.2485652358651973 25.41779263055097
rtibia 43.37521843705669
rfoot 3.8974339566327516 -1.5584648134270314
rtoes -10.493423003261972
lowerback 12.927844619521338 -1.8154382251596943 -1.7023752670467214
upperback -2.505098938409412 -2.5221258453159825 2.551369420942901
thorax -9.384837728472597 -0.994302954123255 4.846325360082277
lowerneck -20.111204316997057 -1.3400017820960275 -3.0978120575341466
upperneck 16.199298492883322 -1.4565028832542013 2.448502994046177
head 8.247412663226239 -0.5795108925274364 1.0927039198823367
lclavicle -1.262638596918743e-15 2.121679714547681e-15
lhumerus -31.331769015540132 -18.785384603625246 93.27258307446004
lradius 119.51375373723877
lwrist 34.84320424569362
lhand -24.09820287835112 -0.18961949934224198
lfingers 7.12502
lthumb 2.3825547716800686 29.798053025201373
rclavicle -1.262638596918743e-15 2.121679714547681e-15
rhumerus -69.09077649875567 1.0440261868803455 -94.2747274265071
rradius 109.97553819507468
rwrist -12.8246215418209
rhand -14.2765621215935 39.01294841230614
rfingers 7.12502
rthumb 11.864190999218813 9.646426260838721
